<?xml version="1.0" encoding="utf-8"?>
<!-- Generator: Adobe Illustrator 26.3.1, SVG Export Plug-In . SVG Version: 6.00 Build 0)  -->
<svg version="1.1" id="Calque_1" xmlns="http://www.w3.org/2000/svg" xmlns:xlink="http://www.w3.org/1999/xlink" x="0px" y="0px"
	 viewBox="0 0 1366 768" style="enable-background:new 0 0 1366 768;" xml:space="preserve">
<style type="text/css">
	.st0{fill:#FFDE96;}
	.st1{fill:#FFFB00;}
	.st2{fill:#A7A5CD;}
	.st3{fill:#D7FF00;}
	.st4{fill:#FFAAC7;}
	.st5{fill:#FF5765;}
	.st6{fill:#02097D;}
	.st7{fill:url(#Rectangle-Copy-7_00000013168108062997010300000012423861821533467778_);}
	.st8{fill:url(#Rectangle-Copy-7-2_00000183961295940540546880000008297028453846501262_);}
	.st9{fill:#FFFFFF;}
	.st10{fill:#EDEDED;}
	.st11{fill:#DBDBDB;}
	.st12{fill:#C5C5C5;}
	.st13{fill:#B1B1B1;}
	.st14{fill:#9D9D9D;}
	.st15{fill:#878787;}
	.st16{fill:#707070;}
	.st17{fill:#585858;}
	.st18{fill:#3E3E3E;}
	.st19{fill:#1E1E1E;}
</style>
<g>
	<rect id="Rectangle" class="st0" width="195.1" height="583"/>
	<rect id="Rectangle-2" x="195.1" class="st1" width="195.1" height="583"/>
	<rect id="Rectangle-3" x="390.3" class="st2" width="195.1" height="583"/>
	<rect id="Rectangle-4" x="585.4" class="st3" width="195.1" height="583"/>
	<rect id="Rectangle-5" x="780.6" class="st4" width="195.1" height="583"/>
	<rect id="Rectangle-6" x="975.7" class="st5" width="195.1" height="583"/>
	<rect id="Rectangle-7" x="1170.9" class="st6" width="195.1" height="583"/>
</g>
<g>
	
		<linearGradient id="Rectangle-Copy-7_00000110458218591387445010000001825802109928545195_" gradientUnits="userSpaceOnUse" x1="0.93" y1="0.4859" x2="4.64" y2="0.4859" gradientTransform="matrix(230 0 0 -43 -229 728)">
		<stop  offset="0" style="stop-color:#FFFFFF"/>
		<stop  offset="1" style="stop-color:#000000"/>
	</linearGradient>
	
		<rect id="Rectangle-Copy-7" y="686.8" style="fill:url(#Rectangle-Copy-7_00000110458218591387445010000001825802109928545195_);" width="837.8" height="40.6"/>
	
		<linearGradient id="Rectangle-Copy-7-2_00000118383670209148897420000017704863011909589127_" gradientUnits="userSpaceOnUse" x1="5.12" y1="0.4859" x2="8.83" y2="0.4859" gradientTransform="matrix(145 0 0 -43 86 728)">
		<stop  offset="0" style="stop-color:#FFFFFF"/>
		<stop  offset="1" style="stop-color:#000000"/>
	</linearGradient>
	
		<rect id="Rectangle-Copy-7-2" x="837.8" y="686.8" style="fill:url(#Rectangle-Copy-7-2_00000118383670209148897420000017704863011909589127_);" width="528.2" height="40.6"/>
</g>
<g>
	<rect id="Rectangle-Copy-9" x="779.5" y="727.4" width="586.5" height="40.6"/>
	<g>
		<rect id="Rectangle-Copy-21" x="714.6" y="727.4" class="st9" width="65" height="40.6"/>
		<rect id="Rectangle-Copy-20" x="649.6" y="727.4" class="st10" width="65" height="40.6"/>
		<rect id="Rectangle-Copy-19" x="584.7" y="727.4" class="st11" width="65" height="40.6"/>
		<rect id="Rectangle-Copy-18" x="519.7" y="727.4" class="st12" width="65" height="40.6"/>
		<rect id="Rectangle-Copy-17" x="454.7" y="727.4" class="st13" width="65" height="40.6"/>
		<rect id="Rectangle-Copy-16" x="389.8" y="727.4" class="st14" width="65" height="40.6"/>
		<rect id="Rectangle-Copy-15" x="324.8" y="727.4" class="st15" width="65" height="40.6"/>
		<rect id="Rectangle-Copy-14" x="259.8" y="727.4" class="st16" width="65" height="40.6"/>
		<rect id="Rectangle-Copy-13" x="194.9" y="727.4" class="st17" width="65" height="40.6"/>
		<rect id="Rectangle-Copy-12" x="129.9" y="727.4" class="st18" width="65" height="40.6"/>
		<rect id="Rectangle-Copy-11" x="65" y="727.4" class="st19" width="65" height="40.6"/>
		<rect id="Rectangle-Copy-10" y="727.4" width="65" height="40.6"/>
	</g>
</g>
<g>
	<rect id="Rectangle-8" y="583" class="st6" width="195.1" height="103.8"/>
	<rect id="Rectangle-9" x="195.1" y="583" width="195.1" height="103.8"/>
	<rect id="Rectangle-10" x="390.3" y="583" class="st4" width="195.1" height="103.8"/>
	<rect id="Rectangle-11" x="585.4" y="583" width="195.1" height="103.8"/>
	<rect id="Rectangle-12" x="780.6" y="583" class="st2" width="195.1" height="103.8"/>
	<rect id="Rectangle-13" x="975.7" y="583" width="195.1" height="103.8"/>
	<rect id="Rectangle-14" x="1170.9" y="583" class="st0" width="195.1" height="103.8"/>
</g>
</svg>
