<svg id="Calque_1" xmlns="http://www.w3.org/2000/svg"  viewBox="0 0 296.31 278.8"><g><path d="M73.29,0V40.72H20.59C9.22,40.72,0,49.94,0,61.31H0c0,10.94,8.87,19.81,19.81,19.81h53.48v40.72h16.15V0h-16.15Z"/><path d="M196.69,42.96c-52.11,0-98.61-2.06-98.61-2.06v37.82s46.49-2.06,98.61-2.06c48.62,0,93.78-14.86,99.62-16.85-5.84-1.99-51-16.85-99.62-16.85Z"/></g><path d="M224,258.04l-30.77-72.79h19.52v-47.78H0v47.78H75.5v46.85h71.84l19.74,46.7h43.15c10.69,0,17.92-10.91,13.76-20.76Zm-131.12-43.31v-29.48h23.61l-10.2,13.99,14.04,10.23,11.04-15.15,8.63,20.4h-47.12Z"/></svg>